<?xml version="1.0" encoding="UTF-8" standalone="no"?>
<!-- Created with Inkscape (http://www.inkscape.org/) -->

<svg
   width="600mm"
   height="400mm"
   viewBox="0 0 600 400"
   version="1.1"
   id="svg2430"
   xml:space="preserve"
   inkscape:version="1.2.2 (732a01da63, 2022-12-09)"
   sodipodi:docname="Corte_V2_Parte2.svg"
   xmlns:inkscape="http://www.inkscape.org/namespaces/inkscape"
   xmlns:sodipodi="http://sodipodi.sourceforge.net/DTD/sodipodi-0.dtd"
   xmlns="http://www.w3.org/2000/svg"
   xmlns:svg="http://www.w3.org/2000/svg"><sodipodi:namedview
     id="namedview2432"
     pagecolor="#ffffff"
     bordercolor="#000000"
     borderopacity="0.25"
     inkscape:showpageshadow="2"
     inkscape:pageopacity="0.0"
     inkscape:pagecheckerboard="0"
     inkscape:deskcolor="#d1d1d1"
     inkscape:document-units="mm"
     showgrid="false"
     inkscape:zoom="0.37104026"
     inkscape:cx="1122.5197"
     inkscape:cy="632.00688"
     inkscape:window-width="1920"
     inkscape:window-height="991"
     inkscape:window-x="1991"
     inkscape:window-y="-9"
     inkscape:window-maximized="1"
     inkscape:current-layer="layer1" /><defs
     id="defs2427"><marker
       id="DistanceX"
       orient="auto"
       refX="0.0"
       refY="0.0"
       style="overflow:visible"><path
         d="M 3,-3 L -3,3 M 0,-5 L  0,5"
         style="stroke:#000000; stroke-width:0.5"
         id="path3738" /></marker><pattern
       id="Hatch"
       patternUnits="userSpaceOnUse"
       width="8"
       height="8"
       x="0"
       y="0"><path
         d="M8 4 l-4,4"
         stroke="#000000"
         stroke-width="0.25"
         linecap="square"
         id="path3741" /><path
         d="M6 2 l-4,4"
         stroke="#000000"
         stroke-width="0.25"
         linecap="square"
         id="path3743" /><path
         d="M4 0 l-4,4"
         stroke="#000000"
         stroke-width="0.25"
         linecap="square"
         id="path3745" /></pattern><symbol
       id="*Model_Space" /><symbol
       id="*Paper_Space" /><symbol
       id="*Paper_Space0" /></defs><g
     inkscape:label="Layer 1"
     inkscape:groupmode="layer"
     id="layer1"><path
       d="m 121.87395,104.66927 a 3.0000001,3.0000001 0 0 0 3,-3 V 27.669264 a 3.0000001,3.0000001 0 0 0 -3,-3 H 27.873953 a 3.0000001,3.0000001 0 0 0 -3,3 v 74.000006 a 3.0000001,3.0000001 0 0 0 3,3 h 32.150001 v 7.00001 a 2,2 0 0 0 2,1.99998 h 5.7 a 2,2 0 0 0 2,-1.99998 v -7.00001 h 10.3 v 7.00001 a 2,2 0 0 0 2,1.99998 h 5.7 a 2,2 0 0 0 2,-1.99998 v -7.00001 z"
       style="fill:none;stroke:#ff0000;stroke-width:0.05;stroke-opacity:1;stroke-dasharray:none"
       id="path3753" /><path
       d="m 228.12365,103.95619 a 3.0000001,3.0000001 0 0 0 3,-3 V 26.956184 a 3.0000001,3.0000001 0 0 0 -3,-3 h -94 a 3.0000001,3.0000001 0 0 0 -3,3 v 74.000006 a 3.0000001,3.0000001 0 0 0 3,3 h 32.15 v 7.00001 a 2,2 0 0 0 2,1.99998 h 5.7 a 2,2 0 0 0 2,-1.99998 v -7.00001 h 10.3 v 7.00001 a 2,2 0 0 0 2,1.99998 h 5.7 a 2,2 0 0 0 2,-1.99998 v -7.00001 z"
       style="fill:none;stroke:#ff0000;stroke-width:0.05;stroke-opacity:1;stroke-dasharray:none"
       id="path3753-5" /></g></svg>
